<svg width="40" height="42" viewBox="0 0 40 42" fill="none" xmlns="http://www.w3.org/2000/svg">
<path d="M39.608 20.517C39.608 16.4592 38.4466 12.4924 36.2705 9.11837C34.0944 5.74439 31.0014 3.11466 27.3827 1.56177C23.764 0.00888974 19.7821 -0.397416 15.9404 0.394238C12.0988 1.18589 8.57009 3.13995 5.80045 6.00933C3.03083 8.87868 1.14468 12.5345 0.380538 16.5144C-0.383605 20.4943 0.00858075 24.6196 1.5075 28.3686C3.00642 32.1176 5.54474 35.3219 8.80148 37.5763C12.0583 39.8308 15.8872 41.034 19.804 41.034C22.4048 41.0344 24.9801 40.5038 27.383 39.4728C29.7858 38.4419 31.9691 36.9306 33.8081 35.0253C35.6472 33.1201 37.1059 30.8582 38.1011 28.3689C39.0962 25.8795 39.6083 23.2115 39.608 20.517Z" fill="#B7ECB1"/>
<path d="M8.64585 15.9651H9.72157L6.52916 23.822H6.28431L3.02832 15.9651H4.11751L6.38841 21.4593L8.64585 15.9651Z" fill="white"/>
<path d="M12.8722 20.6914V22.8882C12.8722 23.064 12.9301 23.1519 13.0457 23.1519C13.2515 23.1121 13.4436 23.0171 13.6029 22.8763V23.4994C13.433 23.6176 13.253 23.7192 13.065 23.803C12.929 23.8571 12.7846 23.8849 12.639 23.8848C12.2187 23.8848 11.97 23.7131 11.8929 23.3696C11.5166 23.69 11.0459 23.8676 10.5589 23.8729C10.3989 23.8776 10.2396 23.8486 10.0908 23.7875C9.94194 23.7264 9.80672 23.6344 9.69333 23.5174C9.57944 23.4013 9.48997 23.2621 9.43056 23.1084C9.37115 22.9548 9.34312 22.79 9.34825 22.6246C9.34774 22.3001 9.46864 21.9879 9.68561 21.7538C9.95397 21.4744 10.2852 21.2685 10.6495 21.1547L11.9083 20.7053V20.4317C11.9083 19.8126 11.6095 19.501 11.0119 19.501C10.4747 19.501 9.95164 19.7886 9.4427 20.3638V19.2354C9.82825 18.7707 10.3783 18.5377 11.0929 18.5364C11.5595 18.5148 12.0177 18.6711 12.3807 18.9758C12.498 19.0816 12.5966 19.2081 12.6717 19.3492C12.7545 19.4923 12.8108 19.6501 12.8375 19.8146C12.8671 20.1071 12.8787 20.4013 12.8722 20.6953V20.6914ZM11.9083 22.7744V21.2445L11.249 21.5082C10.9891 21.6006 10.7479 21.7421 10.5377 21.9256C10.4073 22.0659 10.3344 22.2531 10.3344 22.4479C10.3344 22.6426 10.4073 22.8298 10.5377 22.9701C10.6054 23.0374 10.6856 23.0897 10.7734 23.1241C10.8612 23.1584 10.9548 23.174 11.0486 23.1699C11.2118 23.1662 11.3727 23.129 11.5219 23.0604C11.6711 22.9918 11.8058 22.8933 11.918 22.7704" fill="white"/>
<path d="M15.4773 15.9651H14.4941V23.7901H15.4773V15.9651Z" fill="white"/>
<path d="M23.0428 15.9651H24.053V23.788H22.9676V17.7006L20.6446 20.7244H20.4442L18.0961 17.7006V23.788H17.0146V15.9651H18.0383L20.5483 19.1785L23.0428 15.9651Z" fill="white"/>
<path d="M28.6701 20.6918V22.8886C28.6701 23.0644 28.7279 23.1523 28.8436 23.1523C29.0495 23.1129 29.2417 23.0178 29.4007 22.8766V23.4998C29.2309 23.618 29.0509 23.7197 28.8629 23.8034C28.7276 23.8576 28.5838 23.8853 28.4387 23.8852C28.0172 23.8852 27.7685 23.7135 27.6927 23.3699C27.3155 23.6901 26.8443 23.8676 26.3567 23.8732C26.1967 23.8779 26.0375 23.8488 25.8887 23.7877C25.7399 23.7266 25.6046 23.6347 25.4912 23.5178C25.3772 23.4017 25.2878 23.2625 25.2284 23.1088C25.169 22.9552 25.141 22.7904 25.1461 22.625C25.1455 22.3004 25.2665 21.9883 25.4835 21.7542C25.7518 21.4748 26.083 21.2689 26.4474 21.1551L27.7062 20.7057V20.4321C27.7062 19.813 27.4074 19.5014 26.8098 19.5014C26.2725 19.5014 25.7501 19.789 25.2425 20.3642V19.2358C25.628 18.7711 26.1774 18.5381 26.8908 18.5368C27.3582 18.5131 27.8178 18.668 28.1824 18.9722C28.4192 19.1924 28.5797 19.4871 28.6393 19.811C28.6688 20.1035 28.6804 20.3977 28.6739 20.6918H28.6701ZM27.71 22.7708V21.2409L27.0508 21.5046C26.7908 21.597 26.5496 21.7386 26.3394 21.922C26.2077 22.061 26.1331 22.2475 26.1313 22.4422C26.1295 22.6371 26.2006 22.8249 26.3298 22.9665C26.3975 23.0338 26.4777 23.0861 26.5655 23.1205C26.6533 23.1548 26.7469 23.1704 26.8406 23.1663C27.0038 23.1626 27.1647 23.1254 27.314 23.0568C27.4632 22.9883 27.5978 22.8897 27.71 22.7668" fill="white"/>
<path d="M31.3238 18.6366V19.8189L31.3778 19.7291C31.8534 18.9302 32.3295 18.5308 32.8063 18.5308C33.1764 18.5308 33.562 18.7245 33.963 19.112L33.4444 20.0087C33.1032 19.6731 32.7851 19.5054 32.494 19.5054C32.3302 19.5092 32.1697 19.5538 32.0261 19.6355C31.8824 19.7172 31.7599 19.8336 31.6689 19.9748C31.434 20.2945 31.311 20.6875 31.32 21.0892V23.7893H30.3311V18.6366H31.3238Z" fill="white"/>
<path d="M35.1634 16.4688C35.2405 16.4675 35.317 16.4823 35.3885 16.5121C35.46 16.542 35.5251 16.5863 35.5798 16.6426C35.6358 16.697 35.6801 16.763 35.7101 16.8362C35.7399 16.9095 35.7546 16.9884 35.7533 17.068C35.7539 17.1474 35.7389 17.2261 35.709 17.2993C35.6792 17.3724 35.6352 17.4385 35.5798 17.4933C35.5255 17.5507 35.4607 17.5961 35.3892 17.627C35.3177 17.6579 35.2409 17.6736 35.1634 17.6731C35.0883 17.673 35.0142 17.6567 34.9455 17.6255C34.8768 17.5942 34.8152 17.5486 34.7643 17.4913C34.7094 17.4365 34.6657 17.3708 34.6359 17.298C34.6061 17.2252 34.5908 17.147 34.5908 17.068C34.5912 16.9899 34.6068 16.9127 34.6366 16.841C34.6664 16.7693 34.7098 16.7045 34.7643 16.6505C34.8152 16.5934 34.8768 16.5477 34.9455 16.5164C35.0142 16.4852 35.0883 16.4689 35.1634 16.4688ZM34.6775 18.6357H35.6665V23.7885H34.6833L34.6775 18.6357Z" fill="white"/>
</svg>
