<svg width="45" height="46" viewBox="0 0 45 46" fill="none" xmlns="http://www.w3.org/2000/svg">
<path d="M45 23C45 18.4511 43.6804 14.0042 41.2081 10.2219C38.7357 6.43958 35.2217 3.4916 31.1104 1.75078C26.999 0.00996558 22.4751 -0.445511 18.1105 0.441949C13.7459 1.32941 9.73676 3.51995 6.59009 6.73658C3.44342 9.95319 1.30051 14.0514 0.432342 18.513C-0.435826 22.9745 0.00974888 27.599 1.71272 31.8017C3.41569 36.0044 6.29956 39.5965 9.99965 42.1238C13.6998 44.6511 18.0499 46 22.5 46C25.4548 46.0003 28.3807 45.4056 31.1107 44.2499C33.8407 43.0941 36.3212 41.3999 38.4105 39.2641C40.4999 37.1283 42.1572 34.5927 43.2879 31.8021C44.4185 29.0114 45.0003 26.0205 45 23Z" fill="#B7ECB1"/>
<path d="M9.71427 18H11L7.18433 27H6.89168L3 18H4.30184L7.01609 24.2936L9.71427 18Z" fill="white"/>
<path d="M15.1415 23.4188V25.8824C15.1415 26.0795 15.2094 26.1781 15.3454 26.1781C15.5872 26.1335 15.8129 26.0269 16 25.869V26.5678C15.8004 26.7004 15.5889 26.8143 15.368 26.9082C15.2083 26.969 15.0386 27.0001 14.8674 27C14.3736 27 14.0814 26.8074 13.9907 26.4222C13.5486 26.7815 12.9955 26.9807 12.4232 26.9866C12.2352 26.992 12.0481 26.9594 11.8732 26.8909C11.6983 26.8223 11.5394 26.7192 11.4062 26.5879C11.2724 26.4578 11.1672 26.3016 11.0974 26.1294C11.0276 25.957 10.9947 25.7723 11.0007 25.5868C11.0001 25.2229 11.1422 24.8728 11.3971 24.6103C11.7124 24.2969 12.1017 24.066 12.5297 23.9384L14.0089 23.4345V23.1276C14.0089 22.4333 13.6577 22.084 12.9556 22.084C12.3243 22.084 11.7097 22.4065 11.1117 23.0515V21.7861C11.5647 21.265 12.2111 21.0037 13.0507 21.0022C13.599 20.978 14.1373 21.1533 14.5639 21.4949C14.7018 21.6137 14.8176 21.7554 14.9059 21.9137C15.0032 22.0741 15.0693 22.2511 15.1007 22.4356C15.1354 22.7636 15.1491 23.0935 15.1415 23.4233V23.4188ZM14.0089 25.7548V24.0392L13.2342 24.3348C12.9287 24.4385 12.6453 24.5972 12.3983 24.8029C12.2451 24.9602 12.1595 25.1701 12.1595 25.3886C12.1595 25.607 12.2451 25.8169 12.3983 25.9743C12.4779 26.0497 12.5721 26.1084 12.6753 26.1469C12.7785 26.1854 12.8884 26.2028 12.9986 26.1982C13.1904 26.1941 13.3795 26.1524 13.5548 26.0755C13.7302 25.9986 13.8883 25.8881 14.0202 25.7503" fill="white"/>
<path d="M17 18H16V27H17V18Z" fill="white"/>
<path d="M25.8518 18H27V27H25.7664V19.9967L23.126 23.4754H22.8981L20.2293 19.9967V27H19V18H20.1635L23.0164 21.6969L25.8518 18Z" fill="white"/>
<path d="M32.1415 23.4191V25.8825C32.1415 26.0796 32.2094 26.1781 32.3454 26.1781C32.5873 26.134 32.8132 26.0274 33 25.869V26.5678C32.8005 26.7004 32.5889 26.8144 32.368 26.9082C32.2091 26.969 32.0401 27.0001 31.8697 27C31.3743 27 31.0821 26.8074 30.993 26.4222C30.5498 26.7812 29.9962 26.9803 29.4232 26.9866C29.2352 26.9918 29.0481 26.9592 28.8732 26.8906C28.6984 26.8221 28.5395 26.7191 28.4062 26.588C28.2723 26.4578 28.1672 26.3017 28.0974 26.1294C28.0276 25.9571 27.9947 25.7724 28.0007 25.5869C28 25.223 28.1422 24.873 28.3971 24.6105C28.7124 24.2971 29.1016 24.0663 29.5297 23.9386L31.0089 23.4348V23.1279C31.0089 22.4337 30.6578 22.0843 29.9556 22.0843C29.3243 22.0843 28.7105 22.4068 28.1139 23.0518V21.7865C28.567 21.2654 29.2125 21.0042 30.0507 21.0027C30.6 20.9761 31.1401 21.1498 31.5684 21.4908C31.8467 21.7378 32.0353 22.0682 32.1053 22.4314C32.14 22.7595 32.1536 23.0893 32.146 23.4191H32.1415ZM31.0134 25.7504V24.0349L30.2387 24.3306C29.9332 24.4342 29.6498 24.5929 29.4029 24.7986C29.2481 24.9545 29.1605 25.1636 29.1583 25.3819C29.1562 25.6004 29.2398 25.8111 29.3915 25.9699C29.4711 26.0453 29.5653 26.104 29.6685 26.1425C29.7717 26.181 29.8816 26.1984 29.9918 26.1938C30.1836 26.1897 30.3727 26.148 30.548 26.0711C30.7234 25.9942 30.8815 25.8837 31.0134 25.7459" fill="white"/>
<path d="M35.0934 21.1208V22.4698L35.1529 22.3673C35.6766 21.4558 36.201 21 36.7261 21C37.1338 21 37.5584 21.221 38 21.6632L37.4289 22.6863C37.0531 22.3035 36.7028 22.112 36.3822 22.112C36.2017 22.1164 36.025 22.1673 35.8668 22.2606C35.7086 22.3538 35.5737 22.4865 35.4735 22.6476C35.2147 23.0124 35.0792 23.4608 35.0892 23.9191V27H34V21.1208H35.0934Z" fill="white"/>
<path d="M39.4925 19.0001C39.5588 18.9987 39.6246 19.0148 39.6862 19.0474C39.7477 19.08 39.8036 19.1285 39.8507 19.19C39.8989 19.2494 39.937 19.3216 39.9628 19.4016C39.9884 19.4817 40.0011 19.568 39.9999 19.6549C40.0005 19.7417 39.9876 19.8277 39.9619 19.9077C39.9362 19.9877 39.8984 20.0599 39.8507 20.1198C39.804 20.1825 39.7483 20.2322 39.6868 20.2659C39.6252 20.2997 39.5592 20.3168 39.4925 20.3163C39.428 20.3162 39.3641 20.2984 39.3051 20.2643C39.246 20.2301 39.193 20.1802 39.1492 20.1176C39.102 20.0577 39.0644 19.9858 39.0388 19.9063C39.0131 19.8268 39 19.7413 39 19.6549C39.0003 19.5696 39.0137 19.4852 39.0394 19.4068C39.065 19.3284 39.1024 19.2576 39.1492 19.1987C39.193 19.1362 39.246 19.0863 39.3051 19.0521C39.3641 19.0179 39.428 19.0002 39.4925 19.0001ZM39.0746 21.3684H39.9253V27H39.0796L39.0746 21.3684Z" fill="white"/>
</svg>
