<svg width="29" height="28" viewBox="0 0 29 28" fill="none" xmlns="http://www.w3.org/2000/svg">
<path d="M28.4458 22.2645L25.3417 20.1949L22.5822 18.3557C22.0497 18.0013 21.334 18.1175 20.9409 18.6221L19.2334 20.8172C18.8666 21.2935 18.2068 21.4304 17.6808 21.1392C16.5222 20.4947 15.1521 19.8879 12.1292 16.8611C9.10618 13.8342 8.49549 12.468 7.85101 11.3094C7.5598 10.7834 7.69668 10.1236 8.173 9.75691L10.3681 8.04942C10.8727 7.65633 10.9889 6.94064 10.6346 6.40805L8.85177 3.73358L6.72571 0.544464C6.36385 0.00164174 5.63947 -0.161325 5.08002 0.174179L2.62808 1.64515C1.96544 2.03556 1.47834 2.66599 1.26769 3.40574C0.597173 5.8504 0.461987 11.2432 9.1047 19.886C17.7474 28.5287 23.1398 28.393 25.5844 27.7225C26.3242 27.5119 26.9546 27.0248 27.345 26.3621L28.816 23.9102C29.1515 23.3507 28.9886 22.6264 28.4458 22.2645Z" fill="#55A630"/>
<path d="M16.9202 4.34489C21.4506 4.34992 25.122 8.02127 25.127 12.5517C25.127 12.8183 25.3431 13.0345 25.6098 13.0345C25.8764 13.0345 26.0926 12.8183 26.0926 12.5517C26.087 7.48829 21.9837 3.38497 16.9203 3.37939C16.6537 3.37939 16.4375 3.59552 16.4375 3.86217C16.4374 4.12871 16.6536 4.34489 16.9202 4.34489Z" fill="#55A630"/>
<path d="M16.9213 7.24094C19.8526 7.24439 22.2281 9.61988 22.2315 12.5512C22.2315 12.8178 22.4476 13.034 22.7143 13.034C22.9809 13.034 23.1971 12.8179 23.1971 12.5512C23.1931 9.08684 20.3857 6.27938 16.9213 6.27539C16.6547 6.27539 16.4385 6.49151 16.4385 6.75817C16.4385 7.02482 16.6546 7.24094 16.9213 7.24094Z" fill="#55A630"/>
<path d="M16.9202 10.1381C18.2527 10.1397 19.3324 11.2194 19.334 12.5519C19.334 12.8185 19.5501 13.0346 19.8168 13.0346C20.0834 13.0346 20.2995 12.8185 20.2995 12.5519C20.2974 10.6864 18.7857 9.17474 16.9203 9.17261C16.6537 9.17261 16.4375 9.38873 16.4375 9.65538C16.4374 9.92198 16.6536 10.1381 16.9202 10.1381Z" fill="#55A630"/>
</svg>
